<svg width="420" height="420" viewBox="0 0 420 420" fill="none" xmlns="http://www.w3.org/2000/svg">
<g clip-path="url(#clip0)">
<rect width="420" height="420" fill="white"/>
<path d="M168 -72.8427L-114.843 210" stroke="black" stroke-opacity="0.1"/>
<path d="M175.071 -65.7716L-107.772 217.071" stroke="black" stroke-opacity="0.1"/>
<path d="M182.142 -58.7006L-100.701 224.142" stroke="black" stroke-opacity="0.1"/>
<path d="M189.213 -51.6295L-93.6295 231.213" stroke="black" stroke-opacity="0.1"/>
<path d="M196.284 -44.5584L-86.5584 238.284" stroke="black" stroke-opacity="0.1"/>
<path d="M203.355 -37.4874L-79.4874 245.355" stroke="black" stroke-opacity="0.1"/>
<path d="M210.426 -30.4163L-72.4163 252.426" stroke="black" stroke-opacity="0.1"/>
<path d="M217.497 -23.3452L-65.3452 259.497" stroke="black" stroke-opacity="0.1"/>
<path d="M224.569 -16.2742L-58.2742 266.569" stroke="black" stroke-opacity="0.1"/>
<path d="M231.64 -9.20309L-51.2031 273.64" stroke="black" stroke-opacity="0.1"/>
<path d="M238.711 -2.13205L-44.132 280.711" stroke="black" stroke-opacity="0.1"/>
<path d="M245.782 4.93903L-37.061 287.782" stroke="black" stroke-opacity="0.1"/>
<path d="M252.853 12.0101L-29.9899 294.853" stroke="black" stroke-opacity="0.1"/>
<path d="M259.924 19.0812L-22.9188 301.924" stroke="black" stroke-opacity="0.1"/>
<path d="M266.995 26.1522L-15.8478 308.995" stroke="black" stroke-opacity="0.1"/>
<path d="M274.066 33.2233L-8.77669 316.066" stroke="black" stroke-opacity="0.1"/>
<path d="M281.137 40.2944L-1.70563 323.137" stroke="black" stroke-opacity="0.1"/>
<path d="M288.208 47.3654L5.36544 330.208" stroke="black" stroke-opacity="0.1"/>
<path d="M295.279 54.4365L12.4365 337.279" stroke="black" stroke-opacity="0.1"/>
<path d="M302.35 61.5076L19.5076 344.35" stroke="black" stroke-opacity="0.1"/>
<path d="M309.421 68.5786L26.5786 351.421" stroke="black" stroke-opacity="0.1"/>
<path d="M316.492 75.6497L33.6497 358.492" stroke="black" stroke-opacity="0.1"/>
<path d="M323.563 82.7208L40.7208 365.563" stroke="black" stroke-opacity="0.1"/>
<path d="M330.635 89.7918L47.7918 372.635" stroke="black" stroke-opacity="0.1"/>
<path d="M337.706 96.8629L54.8629 379.706" stroke="black" stroke-opacity="0.1"/>
<path d="M344.777 103.934L61.934 386.777" stroke="black" stroke-opacity="0.1"/>
<path d="M351.848 111.005L69.005 393.848" stroke="black" stroke-opacity="0.1"/>
<path d="M358.919 118.076L76.0761 400.919" stroke="black" stroke-opacity="0.1"/>
<path d="M365.99 125.147L83.1472 407.99" stroke="black" stroke-opacity="0.1"/>
<path d="M373.061 132.218L90.2183 415.061" stroke="black" stroke-opacity="0.1"/>
<path d="M380.132 139.289L97.2893 422.132" stroke="black" stroke-opacity="0.1"/>
<path d="M387.203 146.36L104.36 429.203" stroke="black" stroke-opacity="0.1"/>
<path d="M394.274 153.431L111.431 436.274" stroke="black" stroke-opacity="0.1"/>
<path d="M401.345 160.503L118.503 443.345" stroke="black" stroke-opacity="0.1"/>
<path d="M408.416 167.574L125.574 450.416" stroke="black" stroke-opacity="0.1"/>
<path d="M415.487 174.645L132.645 457.487" stroke="black" stroke-opacity="0.1"/>
<path d="M422.558 181.716L139.716 464.558" stroke="black" stroke-opacity="0.1"/>
<path d="M429.63 188.787L146.787 471.629" stroke="black" stroke-opacity="0.1"/>
<path d="M436.701 195.858L153.858 478.701" stroke="black" stroke-opacity="0.1"/>
<path d="M443.772 202.929L160.929 485.772" stroke="black" stroke-opacity="0.1"/>
<path d="M450.843 210L168 492.843" stroke="black" stroke-opacity="0.1"/>
<path d="M450.843 210L168 -72.8428" stroke="black" stroke-opacity="0.1"/>
<path d="M443.772 217.071L160.929 -65.7717" stroke="black" stroke-opacity="0.1"/>
<path d="M436.701 224.142L153.858 -58.7006" stroke="black" stroke-opacity="0.1"/>
<path d="M429.63 231.213L146.787 -51.6296" stroke="black" stroke-opacity="0.1"/>
<path d="M422.558 238.284L139.716 -44.5585" stroke="black" stroke-opacity="0.1"/>
<path d="M415.487 245.355L132.645 -37.4874" stroke="black" stroke-opacity="0.1"/>
<path d="M408.416 252.426L125.574 -30.4163" stroke="black" stroke-opacity="0.1"/>
<path d="M401.345 259.497L118.503 -23.3453" stroke="black" stroke-opacity="0.1"/>
<path d="M394.274 266.569L111.431 -16.2742" stroke="black" stroke-opacity="0.1"/>
<path d="M387.203 273.64L104.36 -9.20315" stroke="black" stroke-opacity="0.1"/>
<path d="M380.132 280.711L97.2893 -2.13208" stroke="black" stroke-opacity="0.1"/>
<path d="M373.061 287.782L90.2183 4.93899" stroke="black" stroke-opacity="0.1"/>
<path d="M365.99 294.853L83.1472 12.0101" stroke="black" stroke-opacity="0.1"/>
<path d="M358.919 301.924L76.0761 19.0811" stroke="black" stroke-opacity="0.1"/>
<path d="M351.848 308.995L69.0051 26.1522" stroke="black" stroke-opacity="0.1"/>
<path d="M344.777 316.066L61.934 33.2233" stroke="black" stroke-opacity="0.1"/>
<path d="M337.706 323.137L54.8629 40.2943" stroke="black" stroke-opacity="0.1"/>
<path d="M330.635 330.208L47.7919 47.3654" stroke="black" stroke-opacity="0.1"/>
<path d="M323.563 337.279L40.7208 54.4365" stroke="black" stroke-opacity="0.1"/>
<path d="M316.492 344.35L33.6497 61.5075" stroke="black" stroke-opacity="0.1"/>
<path d="M309.421 351.421L26.5787 68.5786" stroke="black" stroke-opacity="0.1"/>
<path d="M302.35 358.492L19.5076 75.6497" stroke="black" stroke-opacity="0.1"/>
<path d="M295.279 365.563L12.4365 82.7207" stroke="black" stroke-opacity="0.1"/>
<path d="M288.208 372.635L5.36546 89.7918" stroke="black" stroke-opacity="0.1"/>
<path d="M281.137 379.706L-1.70561 96.8629" stroke="black" stroke-opacity="0.1"/>
<path d="M274.066 386.777L-8.77667 103.934" stroke="black" stroke-opacity="0.1"/>
<path d="M266.995 393.848L-15.8477 111.005" stroke="black" stroke-opacity="0.1"/>
<path d="M259.924 400.919L-22.9188 118.076" stroke="black" stroke-opacity="0.1"/>
<path d="M252.853 407.99L-29.9899 125.147" stroke="black" stroke-opacity="0.1"/>
<path d="M245.782 415.061L-37.0609 132.218" stroke="black" stroke-opacity="0.1"/>
<path d="M238.711 422.132L-44.132 139.289" stroke="black" stroke-opacity="0.1"/>
<path d="M231.64 429.203L-51.2031 146.36" stroke="black" stroke-opacity="0.1"/>
<path d="M224.569 436.274L-58.2742 153.431" stroke="black" stroke-opacity="0.1"/>
<path d="M217.497 443.345L-65.3452 160.502" stroke="black" stroke-opacity="0.1"/>
<path d="M210.426 450.416L-72.4163 167.574" stroke="black" stroke-opacity="0.1"/>
<path d="M203.355 457.487L-79.4874 174.645" stroke="black" stroke-opacity="0.1"/>
<path d="M196.284 464.558L-86.5584 181.716" stroke="black" stroke-opacity="0.1"/>
<path d="M189.213 471.629L-93.6295 188.787" stroke="black" stroke-opacity="0.1"/>
<path d="M182.142 478.701L-100.701 195.858" stroke="black" stroke-opacity="0.1"/>
<path d="M175.071 485.772L-107.772 202.929" stroke="black" stroke-opacity="0.1"/>
<path d="M168 492.843L-114.843 210" stroke="black" stroke-opacity="0.1"/>
<path d="M11 97C249.4 97 309 97 309 97" stroke="black"/>
<path d="M302 97C302 193.8 302 218 302 218" stroke="black"/>
<path d="M11 97C11 193.8 11 218 11 218" stroke="black"/>
<path d="M10 217C248.4 217 308 217 308 217" stroke="black"/>
<path d="M104 146.426C144 106.426 154 96.4264 154 96.4264" stroke="black"/>
<path d="M153.2 210C68.4 125.2 47.2 104 47.2 104" stroke="black"/>
<path d="M104 146.5C81.6 124.1 76 118.5 76 118.5" stroke="black"/>
<path d="M20 132C42.4 109.6 48 104 48 104" stroke="black"/>
<path d="M153 210C176.2 186.8 182 181 182 181" stroke="black"/>
<path d="M83 125.071C88.6569 119.414 90.0711 118 90.0711 118" stroke="black"/>
<path d="M27 125C32.6569 130.657 34.0711 132.071 34.0711 132.071" stroke="black"/>
<path d="M97.5736 167.5C56.7736 208.3 46.5736 218.5 46.5736 218.5" stroke="black"/>
<path d="M97.5 167.5C119.9 189.9 125.5 195.5 125.5 195.5" stroke="black"/>
<path d="M118.071 188C112.414 193.657 111 195.071 111 195.071" stroke="black"/>
<path d="M167 181C172.657 186.657 174.071 188.071 174.071 188.071" stroke="black"/>
<path d="M217 146C257 106 267 96 267 96" stroke="black"/>
<path d="M266.2 209.574C181.4 124.774 160.2 103.574 160.2 103.574" stroke="black"/>
<path d="M217 146.074C194.6 123.674 189 118.074 189 118.074" stroke="black"/>
<path d="M133 131.574C155.4 109.174 161 103.574 161 103.574" stroke="black"/>
<path d="M266 209.574C289.2 186.374 295 180.574 295 180.574" stroke="black"/>
<path d="M196 124.645C201.657 118.988 203.071 117.574 203.071 117.574" stroke="black"/>
<path d="M140 124.574C145.657 130.23 147.071 131.645 147.071 131.645" stroke="black"/>
<path d="M210.574 167.074C169.774 207.874 159.574 218.074 159.574 218.074" stroke="black"/>
<path d="M210.5 167.074C232.9 189.474 238.5 195.074 238.5 195.074" stroke="black"/>
<path d="M231.071 187.574C225.414 193.23 224 194.645 224 194.645" stroke="black"/>
<path d="M280 180.574C285.657 186.23 287.071 187.645 287.071 187.645" stroke="black"/>
</g>
<defs>
<clipPath id="clip0">
<rect width="420" height="420" fill="white"/>
</clipPath>
</defs>
</svg>
